<?xml version="1.0" encoding="UTF-8"?>
<svg id="Calque_1" xmlns="http://www.w3.org/2000/svg" version="1.1" viewBox="0 0 200 40">
  <!-- Generator: Adobe Illustrator 29.8.1, SVG Export Plug-In . SVG Version: 2.1.1 Build 2)  -->
  <defs>
    <style>
      .st0 {
        fill: #fff;
      }
    </style>
  </defs>
  <path class="st0" d="M24.67,30.59h11.71s7.48-7.75,7.48-7.75l7.51,7.75h8.29l-10.18-10.21,9.4-10.47h-7.71l-7.45,7.81-7.28-7.81h-7.28l-.02,12.56c0,1.63-1.19,2.95-2.69,3.04h-9.18c-1.5-.09-2.69-1.42-2.69-3.04l-.02-12.59h-5.86v13.97c.09,3.74,2.94,6.73,6.46,6.73h9.51ZM27.65,22.47l.02-14.04h9.41l6.64,7.13,6.8-7.13h11.68l-10.69,11.9,11.72,11.75h-12.5l-6.88-7.1-6.85,7.1h-12.34s-9.51,0-9.51,0c-4.41,0-7.84-3.75-7.94-8.2v-15.47h8.83l.02,14.08c0,.9.63,1.5,1.26,1.56h9.08c.63-.06,1.25-.66,1.25-1.56M38.21,20.3l-3.19,3.2v-6.86l3.19,3.66Z"/>
  <path class="st0" d="M83.59,8.7v9.53c-.06,2.55-1.97,4.59-4.31,4.59h-8.95c-2.35,0-4.25-2.05-4.31-4.59v-9.53h3.92v8.59c.01,1.11.81,2.01,1.81,2.08h6.13c1-.06,1.8-.97,1.8-2.08,0,0,.01-8.59.01-8.59h3.92ZM109.73,12.11c0-2.05-1.67-3.72-3.73-3.72-1.34,0-2.46.75-3.18,1.78-.33.48-.84,1.28-.84,1.28l-3.99,7.37h-.08l-4-7.37s-.51-.8-.84-1.28c-.72-1.02-1.83-1.78-3.18-1.78-2.06,0-3.73,1.66-3.73,3.72v10.71h3.93v-8.98c0-.23.29-.51.56-.51.19,0,.37.11.47.28l4.99,9.2h.01s0,0,0,0h3.64s.01,0,.01,0l5-9.2c.09-.17.27-.28.47-.29.27,0,.56.25.56.51v8.98h3.92v-10.7h0ZM125.37,19.36c.51,0,.92-.42.92-.94s-.41-.94-.92-.94h-8.11c-.51,0-.92.42-.92.94s.41.94.92.94h8.11M126.91,8.72c2.35,0,4.25,2.05,4.31,4.59v9.52h-4.14v-.92c-.28.55-.83.89-1.43.89h-11.69c-.89,0-1.62-.75-1.61-1.66v-5.43h0c0-.92.72-1.66,1.62-1.66h11.68c.64,0,1.21.38,1.47.98v-.85c0-1.11-.83-2.08-1.8-2.08h-12.87v-3.37h14.45M151.69,17.59c-.43-.67-1.03-.98-1.33-1.18.6-.12,1.42-.64,1.42-2.48v-2.99c0-.9-.7-2.21-2.45-2.21h-15.25v3.36h12.6c.51,0,.92.48.92,1.07s-.41,1.07-.92,1.07h-12.6v8.61h3.92s0-2.91,0-5.39h8.82c1.92,0,2.31,5.39,2.31,5.39h3.96s-.5-3.83-1.4-5.24M160.41,19.52c-1.09,0-1.97-.82-2.03-1.85v-.28h12.35v-3.21h-12.35v-.28c.06-1.02.95-1.84,2.03-1.84h10.39v-3.44h-11.87c-2.49.06-4.5,2.01-4.5,4.41v5.37c0,2.4,2,4.35,4.5,4.41h12.16v-3.29h-10.67ZM187.94,8.72l-4.98,5.33-4.86-5.33h-4.86l6.05,7.08-6.86,7.03h5.63l5-5.29,5.02,5.29h5.54l-6.8-6.97,6.28-7.14h-5.15Z"/>
  <path class="st0" d="M72.5,25.07v.7h-5.68v2.39h5.39v.66h-5.39v3.19h-.81v-6.93h6.49ZM89.39,32.01h.81v-2.8h4.66c1.18-.01,1.48.28,1.46,1.48v1.32h.81v-1.8c0-.8-.26-1.16-.96-1.3.84-.2,1.09-.59,1.09-1.72,0-.75-.14-1.28-.42-1.59-.36-.39-.83-.53-1.86-.53h-5.6v6.93ZM90.2,28.56v-2.79h4.42c1.43,0,1.8.28,1.8,1.38s-.36,1.4-1.75,1.4h-4.47ZM120.19,30.45l.9,1.56h.89l-4-6.93h-1.15l-4,6.93h.91l.9-1.56h5.56ZM119.8,29.79h-4.78l2.39-4.14,2.39,4.14ZM137.2,32.01h.81v-6.34l6.41,6.34h1.31v-6.93h-.81v6.34l-6.41-6.34h-1.31v6.93ZM168.81,29.68v.39c0,1.17-.31,1.28-3.37,1.28-1.9,0-2.42-.08-2.75-.43-.28-.3-.36-.8-.36-2.38,0-2.81.02-2.82,3.28-2.82,2.85,0,3.13.13,3.13,1.35v.18h.79c-.03-1.1-.17-1.54-.63-1.86-.42-.31-1.01-.39-2.71-.39-2.8,0-3.36.05-3.88.38-.69.45-.84,1-.84,3.16,0,1.89.1,2.44.54,2.9.5.53,1.1.63,3.55.63.92,0,2.08-.04,2.46-.07.62-.07.96-.22,1.21-.53.27-.31.35-.68.35-1.51v-.29h-.79ZM186.22,32.01h6.81v-.7h-6v-2.57h5.73v-.66h-5.73v-2.32h5.95v-.7h-6.76v6.93Z"/>
</svg>